<?xml version="1.0" encoding="UTF-8"?>
<svg width="260px" height="42px" viewBox="0 0 260 42" version="1.1" xmlns="http://www.w3.org/2000/svg" xmlns:xlink="http://www.w3.org/1999/xlink">
    <title>logo-nav</title>
    <defs>
        <polygon id="path-1" points="0.029047619 0.0742325581 121.789405 0.0742325581 121.789405 20.6166279 0.029047619 20.6166279"></polygon>
        <polygon id="path-3" points="0.347704918 0.0620232558 29.9272131 0.0620232558 29.9272131 20.6366512 0.347704918 20.6366512"></polygon>
        <polygon id="path-5" points="0.143510204 0.2472 23.812898 0.2472 23.812898 11.9712 0.143510204 11.9712"></polygon>
        <polygon id="path-7" points="0.125365854 0.2472 19.5892683 0.2472 19.5892683 11.9712 0.125365854 11.9712"></polygon>
    </defs>
    <g id="Symbols" stroke="none" stroke-width="1" fill="none" fill-rule="evenodd">
        <g id="nav-hover" transform="translate(-131.000000, -71.000000)">
            <g id="logo-nav" transform="translate(131.000000, 71.500000)">
                <g id="Group-4" transform="translate(3.000000, 0.000000)">
                    <polyline id="Fill-1" fill="#E98536" points="0.334849315 3.11044186 6.58010959 3.11044186 6.58010959 0.394116279 1.03857534 0.394116279 0.334849315 3.11044186"></polyline>
                    <path d="M32.7545753,10.3461628 C32.7545753,5.55913953 29.4139726,2.92339535 25.802137,2.92339535 C22.1626849,2.92339535 18.9310685,5.55913953 18.9310685,10.3461628 C18.9310685,15.0799535 22.1626849,17.7156977 25.802137,17.7156977 C29.4139726,17.7156977 32.7545753,15.0799535 32.7545753,10.3461628 Z M15.7808219,10.3461628 C15.7808219,3.75753488 20.6423014,0.0185581395 25.802137,0.0185581395 C30.9619726,0.0185581395 35.9048219,3.75753488 35.9048219,10.3461628 C35.9048219,16.8556744 30.989589,20.6473953 25.802137,20.6473953 C20.6423014,20.6473953 15.7808219,16.8556744 15.7808219,10.3461628 L15.7808219,10.3461628 Z" id="Fill-3" fill="#006B96"></path>
                </g>
                <path d="M77.946988,9.8245614 C77.946988,5.03415401 74.9732999,2.76082363 70.1312009,2.76082363 L67.9211242,2.76082363 L67.9211242,17.2126394 L70.1312009,17.2126394 C74.8151301,17.2126394 77.946988,14.587449 77.946988,9.8245614 Z M81,9.8245614 C81,16.2381444 76.6051728,20 70.1049189,20 L65,20 L65,0 L70.1049189,0 C76.8679927,0 81,3.62671384 81,9.8245614 L81,9.8245614 Z" id="Fill-5" fill="#006B96"></path>
                <path d="M93.435553,5.72561536 L90.6834789,12.8894047 L96.2133125,12.8894047 L93.435553,5.72561536 Z M97.0618647,15.4461047 L89.8349267,15.4461047 L88.0864513,20 L85,20 L93.2814406,0 L93.7447118,0 L102,20 L98.8364925,20 L97.0618647,15.4461047 L97.0618647,15.4461047 Z" id="Fill-6" fill="#006B96"></path>
                <g id="Group-10">
                    <mask id="mask-2" fill="white">
                        <use xlink:href="#path-1"></use>
                    </mask>
                    <g id="Clip-8"></g>
                    <polyline id="Fill-7" fill="#006B96" mask="url(#mask-2)" points="117.880079 12.6864419 106.834722 0.0742325581 106.273135 0.0742325581 106.273135 20.2718372 109.258746 20.2718372 109.258746 6.98372093 121.231206 20.5673023 121.789405 20.5673023 121.789405 17.1198837 118.776198 13.7032326 117.880079 12.6864419"></polyline>
                    <path d="M13.8421587,0.394116279 L13.8421587,13.636814 C13.8421587,17.4856744 10.7379365,20.6166279 6.92301587,20.6166279 C3.1037381,20.6166279 0,17.4856744 0,13.636814 L3.01320635,13.636814 C3.01320635,15.8110465 4.76719841,17.577 6.92301587,17.577 C9.07834921,17.577 10.8289524,15.8110465 10.8289524,13.636814 L10.8289524,0.394116279 L13.8421587,0.394116279" id="Fill-9" fill="#006B96" mask="url(#mask-2)"></path>
                </g>
                <path d="M51.3360488,9.01179361 L48.0984389,9.01179361 L48.0984389,2.73366093 L51.3360488,2.73366093 C54.2732101,2.73366093 55.7136551,3.80589681 55.7613853,5.87272727 C55.7136551,7.93955774 54.2732101,9.01179361 51.3360488,9.01179361 Z M59,5.87272727 C59,2.02997543 56.1778934,0 51.5571147,0 L45,0 L45,11.7449631 L45.0010048,11.7449631 L45.0010048,20 L48.0994437,20 L48.0994437,11.7449631 L51.5571147,11.7449631 C51.9520187,11.7449631 52.328333,11.7248157 52.6961062,11.6953317 L52.7820205,11.6938575 L52.7769962,11.6879607 C56.6667504,11.3513514 59,9.36265356 59,5.87272727 L59,5.87272727 Z" id="Fill-11" fill="#006B96"></path>
                <polyline id="Fill-12" fill="#E98536" points="51.4094388 14 48 14.0218594 53.3375319 20 57 20 51.4094388 14"></polyline>
                <polyline id="Fill-13" fill="#E98536" points="118 0 118 11.6374503 122 15 122 0 118 0"></polyline>
                <polyline id="Fill-14" fill="#006B96" points="144.411333 2.76040003 138 2.76040003 138 0 154 0 154 2.76040003 147.588667 2.76040003 147.588667 20 144.411333 20 144.411333 2.76040003"></polyline>
                <polyline id="Fill-15" fill="#006B96" points="169.794128 0 169.794128 8.28131911 160.176512 8.28131911 160.176512 0 157 0 157 11.0674792 169.794128 11.0674792 169.794128 20 173 20 173 0 169.794128 0"></polyline>
                <path d="M193.868674,10.0134946 C193.868674,5.37181278 190.549146,2.81635455 186.959566,2.81635455 C183.342539,2.81635455 180.130835,5.37181278 180.130835,10.0134946 C180.130835,14.6026184 183.342539,17.1580767 186.959566,17.1580767 C190.549146,17.1580767 193.868674,14.6026184 193.868674,10.0134946 Z M177,10.0134946 C177,3.62461233 181.831524,0 186.959566,0 C192.087608,0 197,3.62461233 197,10.0134946 C197,16.3237766 192.114564,20 186.959566,20 C181.831524,20 177,16.3237766 177,10.0134946 L177,10.0134946 Z" id="Fill-16" fill="#006B96"></path>
                <polyline id="Fill-17" fill="#006B96" points="218.074665 19.946947 216.037174 7.91501881 210.761326 20 210.291318 20 204.988911 7.94154529 202.925335 19.946947 200 19.946947 203.578414 0 204.126677 0 210.526085 14.5813639 216.925019 0 217.499842 0 221 19.946947 218.074665 19.946947"></polyline>
                <g id="Group-21" transform="translate(230.000000, 0.000000)">
                    <mask id="mask-4" fill="white">
                        <use xlink:href="#path-3"></use>
                    </mask>
                    <g id="Clip-19"></g>
                    <polyline id="Fill-18" fill="#006B96" mask="url(#mask-4)" points="3.41114754 0.0888837209 2.92229508 0.0888837209 1.79901639 2.68897674 4.24377049 8.73990698 6.01180328 13.1059535 1.33672131 13.1059535 0.347704918 15.6884651 6.90442623 15.6884651 8.77131148 20.2864884 12.1057377 20.2864884 3.41114754 0.0888837209"></polyline>
                    <path d="M15.4101639,17.6507442 L17.2519672,15.3920233 C18.9309836,17.0056047 20.7998361,17.8123953 22.8314754,17.8123953 C25.3504918,17.8123953 26.8131148,16.6290698 26.8131148,14.8001163 C26.8131148,10.1742558 16.114918,13.401907 16.114918,5.92493023 C16.114918,2.50925581 18.9855738,0.0620232558 23.2647541,0.0620232558 C26.1359016,0.0620232558 28.2752459,1.16476744 29.7108197,2.56297674 L27.9772131,4.76846512 C26.7585246,3.58513953 25.2688525,2.85893023 23.2647541,2.85893023 C20.7186885,2.85893023 19.2019672,4.06911628 19.2019672,5.84434884 C19.2019672,10.3085581 29.9277049,7.29627907 29.9277049,14.5578837 C29.9277049,18.27 27.0565574,20.6366512 22.777377,20.6366512 C19.3377049,20.6366512 17.0355738,19.211093 15.4101639,17.6507442" id="Fill-20" fill="#006B96" mask="url(#mask-4)"></path>
                </g>
                <polyline id="Fill-22" fill="#E98536" points="233 7.17202144 231.747232 4 225 20 228.115665 20 233 7.17202144"></polyline>
                <polygon id="Fill-23" fill="#E98536" points="157 20 161 20 161 12 157 12"></polygon>
                <g id="Group-27" transform="translate(61.000000, 29.000000)">
                    <mask id="mask-6" fill="white">
                        <use xlink:href="#path-5"></use>
                    </mask>
                    <g id="Clip-25"></g>
                    <polyline id="Fill-24" fill="#006B96" mask="url(#mask-6)" points="1.89453061 2.02512 1.89453061 5.304 6.49126531 5.304 6.49126531 6.85152 1.89453061 6.85152 1.89453061 11.78544 0.143510204 11.78544 0.143510204 0.46224 6.70971429 0.46224 6.70971429 2.02512 1.89453061 2.02512"></polyline>
                    <path d="M21.9996735,6.13152 C21.9996735,3.40416 20.0767347,1.90272 17.9970612,1.90272 C15.9022041,1.90272 14.0414694,3.40416 14.0414694,6.13152 C14.0414694,8.82816 15.9022041,10.3296 17.9970612,10.3296 C20.0767347,10.3296 21.9996735,8.82816 21.9996735,6.13152 Z M12.2277551,6.13152 C12.2277551,2.37744 15.0259592,0.2472 17.9970612,0.2472 C20.9676735,0.2472 23.812898,2.37744 23.812898,6.13152 C23.812898,9.83952 20.9833469,12 17.9970612,12 C15.0259592,12 12.2277551,9.83952 12.2277551,6.13152 L12.2277551,6.13152 Z" id="Fill-26" fill="#006B96" mask="url(#mask-6)"></path>
                </g>
                <path d="M91,36.562281 L91.0156897,30 L92.7685226,30 L92.7533232,36.4452695 C92.7533232,38.4367596 93.8329701,39.4182797 95.4921552,39.4182797 C97.1822292,39.4182797 98.2309871,38.4367596 98.2309871,36.4452695 L98.2466768,30 L100,30 L99.98382,36.562281 C99.98382,39.549975 98.0588908,41 95.5073545,41 C92.9411092,41 91,39.549975 91,36.562281" id="Fill-28" fill="#006B96"></path>
                <polyline id="Fill-29" fill="#006B96" points="116 29.1894347 116 41 115.675423 41 108.731887 33.0476876 108.731887 40.8268448 107 40.8268448 107 29 107.324577 29 114.252611 36.9843782 114.252611 29.1894347 116 29.1894347"></polyline>
                <path d="M129.283285,35.403476 C129.283285,32.7684188 127.610624,31.5182705 124.886696,31.5182705 L123.642982,31.5182705 L123.642982,39.466808 L124.886696,39.466808 C127.521589,39.466808 129.283285,38.0231454 129.283285,35.403476 Z M131,35.403476 C131,38.9310301 128.527875,41 124.871857,41 L122,41 L122,30 L124.871857,30 C128.676268,30 131,31.994362 131,35.403476 L131,35.403476 Z" id="Fill-30" fill="#006B96"></path>
                <path d="M141.962085,33.1494119 L140.343602,37.0893885 L143.596209,37.0893885 L141.962085,33.1494119 Z M144.095735,38.4957037 L139.844076,38.4957037 L138.815166,41 L137,41 L141.87109,30 L142.143602,30 L147,41 L145.139336,41 L144.095735,38.4957037 L144.095735,38.4957037 Z" id="Fill-31" fill="#006B96"></path>
                <polyline id="Fill-32" fill="#006B96" points="152.605899 31.5182705 149 31.5182705 149 30 158 30 158 31.5182705 154.393601 31.5182705 154.393601 41 152.605899 41 152.605899 31.5182705"></polyline>
                <g id="Group-36" transform="translate(163.000000, 29.000000)">
                    <mask id="mask-8" fill="white">
                        <use xlink:href="#path-7"></use>
                    </mask>
                    <g id="Clip-34"></g>
                    <polygon id="Fill-33" fill="#006B96" mask="url(#mask-8)" points="0.125365854 11.78544 1.86926829 11.78544 1.86926829 0.46224 0.125365854 0.46224"></polygon>
                    <path d="M17.782439,6.13152 C17.782439,3.40416 15.8673171,1.90272 13.7965854,1.90272 C11.7097561,1.90272 9.85658537,3.40416 9.85658537,6.13152 C9.85658537,8.82816 11.7097561,10.3296 13.7965854,10.3296 C15.8673171,10.3296 17.782439,8.82816 17.782439,6.13152 Z M8.0502439,6.13152 C8.0502439,2.37744 10.837561,0.2472 13.7965854,0.2472 C16.755122,0.2472 19.5892683,2.37744 19.5892683,6.13152 C19.5892683,9.83952 16.7702439,12 13.7965854,12 C10.837561,12 8.0502439,9.83952 8.0502439,6.13152 L8.0502439,6.13152 Z" id="Fill-35" fill="#006B96" mask="url(#mask-8)"></path>
                </g>
                <polyline id="Fill-37" fill="#006B96" points="199 29.1894347 199 41 198.675423 41 191.731887 33.0476876 191.731887 40.8268448 190 40.8268448 190 29 190.324577 29 197.252126 36.9843782 197.252126 29.1894347 199 29.1894347"></polyline>
            </g>
        </g>
    </g>
</svg>